# Blender v2.93.7 OBJ File: ''
# www.blender.org
mtllib test.mtl
o Cube
v 1.400000 1.100000 -1.600000
v 1.400000 -0.500000 -0.800000
v 1.400000 0.300000 1.000000
v -1.200000 -0.300000 -0.900000
v -1.200000 0.600000 0.900000
v -0.700000 -0.700000 1.500000
v -1.200000 -0.500000 1.400000
v -1.200000 -1.400000 -0.400000
v -0.700000 -1.600000 -0.300000
v 1.400000 1.700000 -0.300000
v 0.800000 1.600000 0.400000
v 1.400000 1.500000 0.500000
v 0.100000 0.400000 -1.250000
v 0.350000 -1.050000 -0.550000
v 0.750000 0.750000 -1.425000
v 0.875000 -0.775000 -0.675000
v 0.750663 0.662443 -1.604815
v 0.100663 0.312443 -1.429815
v 0.875663 -0.862557 -0.854815
v 0.350663 -1.137557 -0.729815
v -1.200000 0.000000 -0.300000
v -1.200000 0.300000 0.300000
v -1.200000 -0.800000 0.800000
v -1.200000 -1.100000 0.200000
v -1.500000 0.000000 -0.300000
v -1.500000 0.300000 0.300000
v -1.500000 -0.800000 0.800000
v -1.500000 -1.100000 0.200000
vt 0.686279 0.750000
vt 0.750000 0.500000
vt 0.875000 0.666667
vt 0.375000 0.750000
vt 0.552452 0.750000
vt 0.625000 0.811279
vt 0.448615 0.166667
vt 0.625000 0.250000
vt 0.448615 0.250000
vt 0.276485 0.500000
vt 0.325742 0.500000
vt 0.375000 0.500000
vt 0.625000 0.500000
vt 0.625000 0.672871
vt 0.625000 0.437500
vt 0.375000 0.450742
vt 0.761081 0.000000
vt 0.472787 0.333333
vt 0.472787 0.666667
vt 0.511228 0.134735
vt 0.511228 0.014743
vt 0.444804 0.060148
vt 0.375000 0.401485
vt 0.375000 0.302970
vt 0.625000 0.375000
vt 0.375000 0.401485
vt 0.375000 0.450742
vt 0.687500 0.500000
vt 0.750000 0.500000
vt 0.625000 0.437500
vt 0.325742 0.500000
vt 0.448615 0.000000
vt 0.625000 0.083333
vt 0.448615 0.083333
vt 0.448615 0.083333
vt 0.625000 0.166667
vt 0.448615 0.166667
vt 0.625000 0.166667
vt 0.472787 0.333333
vt 0.472787 0.666667
vt 0.875000 0.583333
vt 0.875000 0.666667
vt 0.875000 0.500000
vt 0.875000 0.750000
vt 0.625000 1.000000
vt 0.448615 1.000000
vt 0.375000 0.947030
vt 0.177970 0.750000
vt 0.177970 0.500000
vt 0.472787 1.000000
vt 0.761081 1.000000
vt 0.472787 0.000000
vt 0.625000 0.375000
vt 0.687500 0.500000
vt 0.276485 0.500000
vt 0.625000 0.000000
vt 0.625000 0.083333
vt 0.875000 0.583333
vn -0.4947 0.7891 -0.3640
vn -0.0894 0.3831 0.9194
vn -1.0000 0.0000 0.0000
vn 0.4987 -0.7921 0.3520
vn 1.0000 0.0000 -0.0000
vn 0.0168 -0.4401 -0.8978
vn -0.4082 -0.8165 0.4082
vn 0.1204 0.9631 0.2408
vn 0.0028 -0.4182 -0.9084
vn -0.9882 -0.1394 0.0642
vn 0.0122 -0.4330 -0.9013
vn -0.5158 0.7695 -0.3766
vn 0.9973 0.0674 -0.0291
vn 0.4986 -0.7786 0.3810
vn -0.0000 0.4138 0.9104
vn -0.0000 -0.4138 -0.9104
vn 0.0000 -0.8944 0.4472
vn -0.0000 0.8944 -0.4472
vn -0.5319 0.7731 -0.3455
vn -0.5156 0.7780 -0.3591
vn -0.5154 0.7821 -0.3502
vn -0.5158 0.7663 -0.3831
vn -0.4880 0.7807 -0.3904
vn 0.0141 0.4244 0.9054
vn -0.0166 0.4137 0.9102
vn 0.0140 0.4235 0.9058
vn 0.4699 -0.7982 0.3769
vn 0.4985 -0.7754 0.3877
vn 0.0000 -0.4472 -0.8944
vn 0.0165 -0.4137 -0.9102
vn -0.0076 -0.4358 -0.9000
vn -0.0038 -0.4416 -0.8972
usemtl Material
s off
f 11/1/1 13/2/1 22/3/1
f 3/4/2 12/5/2 11/6/2
f 24/7/3 4/8/3 8/9/3
f 14/10/4 16/11/4 3/4/4
f 2/12/5 1/13/5 10/14/5
f 15/15/6 2/12/6 16/16/6
f 6/17/7 23/18/7 24/19/7
f 10/20/8 11/21/8 12/22/8
f 4/8/9 14/23/9 9/24/9
f 14/23/10 18/25/10 20/26/10
f 18/25/11 19/27/11 20/26/11
f 15/28/12 18/29/12 13/2/12
f 15/15/13 19/27/13 17/30/13
f 14/10/14 19/31/14 16/11/14
f 7/32/3 22/33/3 23/34/3
f 22/33/15 27/35/15 23/34/15
f 27/35/3 25/36/3 28/37/3
f 24/7/16 25/36/16 21/38/16
f 24/19/17 27/39/17 28/40/17
f 21/41/18 26/42/18 22/3/18
f 11/1/19 10/14/19 15/28/19
f 10/14/20 1/13/20 15/28/20
f 15/28/21 13/2/21 11/1/21
f 13/2/22 4/43/22 21/41/22
f 22/3/23 5/44/23 11/1/23
f 13/2/22 21/41/22 22/3/22
f 11/6/24 5/45/24 3/4/24
f 5/45/25 7/46/25 6/47/25
f 3/4/26 5/45/26 6/47/26
f 24/7/3 21/38/3 4/8/3
f 16/11/4 2/12/4 3/4/4
f 3/4/27 6/48/27 14/10/27
f 6/48/28 9/49/28 14/10/28
f 10/14/5 12/5/5 3/4/5
f 3/4/5 2/12/5 10/14/5
f 15/15/29 1/13/29 2/12/29
f 8/50/7 9/51/7 24/19/7
f 9/51/7 6/17/7 24/19/7
f 6/17/7 7/52/7 23/18/7
f 9/24/30 8/9/30 4/8/30
f 4/8/31 13/53/31 14/23/31
f 14/23/10 13/53/10 18/25/10
f 18/25/32 17/30/32 19/27/32
f 15/28/12 17/54/12 18/29/12
f 15/15/13 16/16/13 19/27/13
f 14/10/14 20/55/14 19/31/14
f 7/32/3 5/56/3 22/33/3
f 22/33/15 26/57/15 27/35/15
f 27/35/3 26/57/3 25/36/3
f 24/7/16 28/37/16 25/36/16
f 24/19/17 23/18/17 27/39/17
f 21/41/18 25/58/18 26/42/18
